<?xml version="1.0" encoding="utf-8"?>
<!-- Generator: Adobe Illustrator 21.0.0, SVG Export Plug-In . SVG Version: 6.00 Build 0)  -->
<svg version="1.1" id="Layer_1" xmlns="http://www.w3.org/2000/svg" xmlns:xlink="http://www.w3.org/1999/xlink" x="0px" y="0px"
	 width="16px" height="16px" viewBox="0 0 16 16" style="enable-background:new 0 0 16 16;" xml:space="preserve">
<path d="M10.5,12.8c0.1,0.2,0.1,0.5-0.2,0.7l-1.9,1.1c-0.2,0.1-0.5,0.1-0.7-0.2l-0.3-0.5c-0.4-0.7-1.1-1.1-1.8-1.3c0,0,0.1,0,0.1,0
	l4.1-2.4c0,0,0,0,0.1-0.1c-0.1,0.8-0.1,1.5,0.3,2.2L10.5,12.8z M9.5,9.6L5.4,12c-0.5,0.3-1.1,0.1-1.3-0.4l-4-8.4
	C-0.1,2.7,0,2.1,0.5,1.8l2.7-1.6c0.5-0.3,1-0.1,1.3,0.4l5.3,7.7C10.1,8.7,10,9.3,9.5,9.6z M11.1,15.3c0.1,0.2,0,0.3-0.2,0.3
	l-1.2,0.2c-0.3,0.1-0.4,0.1-0.5-0.2L9,15.2c-0.1-0.2-0.1-0.3,0.1-0.4l1.1-0.6c0.2-0.1,0.3-0.1,0.4,0.1L11.1,15.3z M16,15.2
	c0,0.3-0.3,0.6-0.6,0.6h-2.6c-0.3,0-0.6-0.3-0.6-0.6c0-0.3,0.3-0.6,0.6-0.6h2.6C15.7,14.6,16,14.9,16,15.2z"/>
</svg>
